<?xml version="1.0" standalone="no"?>
<!DOCTYPE svg PUBLIC "-//W3C//DTD SVG 20010904//EN"
 "http://www.w3.org/TR/2001/REC-SVG-20010904/DTD/svg10.dtd">
<svg version="1.0" xmlns="http://www.w3.org/2000/svg"
 width="108.000000pt" height="108.000000pt" viewBox="0 0 108.000000 108.000000"
 preserveAspectRatio="xMidYMid meet">
<metadata>
Created by potrace 1.14, written by Peter Selinger 2001-2017
</metadata>
<g transform="translate(0.000000,108.000000) scale(0.100000,-0.100000)"
fill="#000000" stroke="none">
<path d="M0 540 l0 -540 540 0 540 0 0 540 0 540 -540 0 -540 0 0 -540z m613
393 c-46 -2 -120 -2 -165 0 -46 1 -9 3 82 3 91 0 128 -2 83 -3z m-308 -13 c-3
-5 -27 -10 -53 -9 -38 1 -42 2 -22 9 37 12 82 12 75 0z m515 0 c20 -7 16 -8
-22 -9 -26 -1 -50 4 -53 9 -7 12 38 12 75 0z m-637 -17 c-22 -4 -23 -9 -24
-111 -2 -168 -16 -188 -18 -24 l-1 142 33 -1 c23 -1 26 -3 10 -6z m723 -113
l0 -115 -3 107 c-4 105 -4 107 -31 117 l-27 10 30 -2 30 -2 1 -115z m-584 38
c-9 -9 -12 -7 -12 12 0 19 3 21 12 12 9 -9 9 -15 0 -24z m299 12 c10 0 19 -4
19 -10 0 -5 -11 -10 -25 -10 -19 0 -25 5 -24 23 0 12 3 16 6 10 2 -7 13 -13
24 -13z m-398 -25 c-7 -21 -13 -19 -13 6 0 11 4 18 10 14 5 -3 7 -12 3 -20z
m337 15 c0 -5 -10 -10 -22 -10 -19 0 -20 2 -8 10 19 13 30 13 30 0z m107 -102
c40 -22 64 -48 43 -48 -6 0 -10 4 -10 10 0 5 -17 12 -37 16 -21 4 -51 14 -68
22 -16 9 -48 19 -70 23 -29 6 -21 7 30 4 46 -3 84 -12 112 -27z m-197 12 c0
-5 -4 -10 -9 -10 -5 0 -17 -3 -27 -7 -16 -6 -17 -5 -4 10 17 18 40 22 40 7z
m0 -39 c0 -17 -52 -51 -78 -51 -25 0 -25 0 -6 21 28 31 84 51 84 30z m110 -28
c0 -5 -16 -8 -35 -9 -19 0 -35 3 -35 8 0 4 16 8 35 8 19 0 35 -3 35 -7z m149
-11 c3 -5 16 -14 29 -21 20 -11 22 -18 20 -79 -2 -63 -2 -64 -5 -14 -4 52 -5
52 -66 93 l-62 41 39 -6 c22 -3 42 -9 45 -14z m-385 -34 c-4 -13 -11 -26 -16
-29 -5 -3 -2 -12 6 -19 20 -16 11 -30 -20 -30 -13 0 -24 -5 -24 -11 0 -19 -23
-3 -26 19 -3 14 8 33 34 56 43 41 56 45 46 14z m555 -25 c0 -10 -4 -27 -9 -38
-7 -16 -9 -13 -9 18 -1 20 4 37 9 37 6 0 10 -8 9 -17z m-714 -108 c5 -25 4
-27 -5 -12 -6 10 -13 44 -15 75 -4 57 -4 57 5 12 5 -25 11 -58 15 -75z m534
-34 c-1 -84 -17 -122 -18 -45 -1 47 -6 67 -26 94 -14 19 -25 45 -25 59 1 25 2
25 35 -13 31 -35 35 -45 34 -95z m158 42 c-3 -10 -5 -4 -5 12 0 17 2 24 5 18
2 -7 2 -21 0 -30z m-457 17 c0 -5 -4 -10 -10 -10 -5 0 -10 5 -10 10 0 6 5 10
10 10 6 0 10 -4 10 -10z m42 -12 c-7 -7 -12 -20 -12 -30 0 -9 -13 -32 -29 -50
-40 -46 -44 -68 -21 -113 l19 -40 -24 30 c-29 35 -34 95 -9 116 9 7 29 32 45
56 17 24 33 43 36 43 4 0 2 -5 -5 -12z m-62 -21 c0 -14 -39 -41 -48 -33 -6 7
27 46 40 46 4 0 8 -6 8 -13z m441 -89 c-11 -24 -20 -36 -21 -28 0 8 7 28 15
44 8 15 16 38 16 50 2 21 2 21 6 -1 2 -12 -5 -41 -16 -65z m-501 56 c0 -8 -5
-12 -10 -9 -6 4 -8 11 -5 16 9 14 15 11 15 -7z m-143 -16 c-3 -8 -6 -5 -6 6
-1 11 2 17 5 13 3 -3 4 -12 1 -19z m318 -45 c-4 -21 -10 -58 -14 -83 -6 -43
-6 -44 -18 -19 -9 21 -8 38 5 83 19 63 39 77 27 19z m-298 5 c-3 -8 -6 -5 -6
6 -1 11 2 17 5 13 3 -3 4 -12 1 -19z m37 -61 c25 -54 158 -184 222 -218 l49
-25 45 23 c24 13 47 27 50 31 3 4 24 22 48 41 41 32 123 130 135 161 5 13 6
13 6 -1 2 -33 -85 -136 -167 -197 -21 -15 -39 -29 -42 -32 -3 -3 -20 -14 -39
-24 -33 -18 -35 -18 -70 0 -83 42 -180 133 -237 222 -36 55 -39 62 -26 62 4 0
16 -20 26 -43z m318 -77 c1 -9 -1 -17 -7 -18 -5 -1 -11 10 -13 25 -4 29 13 23
20 -7z"/>
</g>
</svg>
